<svg xmlns="http://www.w3.org/2000/svg" viewBox="0 0 375.21 131.49" width="100%" height="100%" preserveAspectRatio="xMidYMid meet">
    <path d="M209.19 102.02V10.5h22.76v91.52zM171.44 102.02V30.34h22.76v71.68h-22.76z"></path>
    <circle cx="12.29" cy="12.29" r="12.29" transform="translate(170.54)"></circle>
    <path d="M50.58 30.34l-1.53 6.09c-1.06-1.98-3.27-3.74-6.62-5.26a23.973 23.973 0 0 0-9.94-2.28q-14.28 0-23.38 10.45T0 66.18q0 16.26 9.35 26.74a29.781 29.781 0 0 0 23.14 10.48 31.237 31.237 0 0 0 9.52-1.7c3.5-1.13 5.84-2.73 7.04-4.81v1.31q0 14.73-13.18 14.74a19.5 19.5 0 0 1-4.28-.48 12.777 12.777 0 0 1-4.45-2.08 7.983 7.983 0 0 1-2.52-2.95l-22.41 6.72a28.27 28.27 0 0 0 12.16 12.67c6.02 3.13 13.19 4.67 21.5 4.67a42.587 42.587 0 0 0 13.95-2.25 36.183 36.183 0 0 0 11.53-6.4 29.184 29.184 0 0 0 7.89-10.52 33.538 33.538 0 0 0 2.91-14.11V30.34zm-5.12 49.99a11.463 11.463 0 0 1-9.45 4.53 11.706 11.706 0 0 1-9.66-4.5q-3.585-4.5-3.59-14.18 0-9.615 3.59-14.08a11.757 11.757 0 0 1 9.66-4.46 11.492 11.492 0 0 1 9.45 4.5q3.585 4.5 3.59 14.04 0 9.615-3.59 14.15zM86.34 77.22c0 17.68 12.17 26.18 27.18 26.18a35.038 35.038 0 0 0 20.45-6.48l1.37 5.09h21.12V30.34H133.7v35.77c0 9.07-.55 11.2-2.96 14.21a12.783 12.783 0 0 1-10.15 4.43 10.7 10.7 0 0 1-9.15-4.49c-2.35-2.99-2.34-7.71-2.34-14.15V30.34H86.34v46.88zM268.91 68.15V47.64h17.3v-17.3h-17.3V10.5h-22.76v37.15l-.04 18.47v9.76h.02c0 .12-.02.24-.02.36 0 20.3 9.9 27.18 27.18 27.18h12.93V84.74h-5.13c-12.18 0-12.18-6.81-12.18-16.59zM375.21 30.31h-23.94l-17.49 45.14-17.98-45.14h-23.94l30.63 71.1-11.61 28.67h22.03l11.91-28.1z"></path>
</svg>